<svg xmlns="http://www.w3.org/2000/svg" viewBox="0 0 48 48">
  <path fill="#34A853" d="M11.66 29.98c2.1 4.7 6.4 8.24 11.53 9.47l.81.19v-9.35l-2.09-2.09-10.25 1.78z"/>
  <path fill="#4285F4" d="M24 9.04v13.59l9.35 9.35c.44-1.28.65-2.62.65-4 0-5.18-3.23-9.58-7.78-11.31l-2.22-7.67z"/>
  <path fill="#EA4335" d="M24 .26c-3.18 0-6.17.85-8.75 2.34l7.08 7.08 1.67-1.67V.26z"/>
  <path fill="#FBBC05" d="M11.9 14.2c.4-3.3 2.1-6.1 4.5-8l-5.6-4.1C6.7 5.7 4.1 10.1 4 15l7.8 1.3c0-.7.1-1.4.1-2.1z"/>
  <path fill="#EA4335" d="M24 4.1c3.1 0 5.9 1.1 8.1 3l5.6-4.1C33.6 1 29 0 24 0c-5.1 0-9.8 1.1-13.8 3l5.6 4.1c2.1-1.9 4.9-3 8.2-3z"/>
  <circle fill="#fff" cx="24" cy="16.4" r="5.6"/>
</svg>
